<?xml version="1.0" encoding="utf-8"?>
<!-- Generator: Adobe Illustrator 26.1.0, SVG Export Plug-In . SVG Version: 6.00 Build 0)  -->
<svg version="1.1" id="Livello_1" xmlns="http://www.w3.org/2000/svg" xmlns:xlink="http://www.w3.org/1999/xlink" x="0px" y="0px"
	 viewBox="0 0 24 24" style="enable-background:new 0 0 24 24;" xml:space="preserve">
<style type="text/css">
	.st0{fill-rule:evenodd;clip-rule:evenodd;fill:#FFFFFF;}
	.st1{opacity:0.7;fill-rule:evenodd;clip-rule:evenodd;fill:#FFFFFF;enable-background:new    ;}
</style>
<desc>Created with Sketch.</desc>
<g id="Stockholm-icons-_x2F_-Navigation-_x2F_-Close">
	
		<g id="Group" transform="translate(12.000000, 12.000000) rotate(-45.000000) translate(-12.000000, -12.000000) translate(4.000000, 4.000000)">
		<path id="Rectangle-185" class="st0" d="M-6.1,6h28.2c1.1,0,2,0.9,2,2l0,0c0,1.1-0.9,2-2,2H-6.1c-1.1,0-2-0.9-2-2l0,0
			C-8.1,6.9-7.2,6-6.1,6z"/>
		<path id="Rectangle-185-Copy" class="st1" d="M10-6.1v28.2c0,1.1-0.9,2-2,2l0,0c-1.1,0-2-0.9-2-2V-6.1c0-1.1,0.9-2,2-2l0,0
			C9.1-8.1,10-7.2,10-6.1z"/>
	</g>
</g>
</svg>
