<?xml version="1.0" encoding="utf-8"?>
<!-- Generator: Adobe Illustrator 26.1.0, SVG Export Plug-In . SVG Version: 6.00 Build 0)  -->
<svg version="1.1" id="Livello_1" xmlns="http://www.w3.org/2000/svg" xmlns:xlink="http://www.w3.org/1999/xlink" x="0px" y="0px"
	 viewBox="0 0 24 24" style="enable-background:new 0 0 24 24;" xml:space="preserve">
<style type="text/css">
	.st0{fill:none;}
	.st1{fill:#FFFFFF;}
	.st2{fill:none;stroke:#FFFFFF;stroke-width:2.9537;stroke-linecap:round;stroke-miterlimit:10;}
	.st3{opacity:0.7;fill:#FFFFFF;enable-background:new    ;}
</style>
<desc>Created with Sketch.</desc>
<polygon id="Bound" class="st0" points="0,0 24,0 24,24 0,24 "/>
<path id="Combined-Shape_00000038379922521257236590000010407855033361335999_" class="st1" d="M6.1,17.9H1.7
	c-1-0.1-1.5-0.6-1.5-1.5c0-0.9,0.4-1.3,1.5-1.5H9v7.4c0,1-0.4,1.5-1.5,1.5s-1.5-0.4-1.5-1.5V17.9z M17.9,17.9v4.4
	c-0.1,1-0.6,1.5-1.5,1.5c-0.9,0-1.3-0.4-1.5-1.5V15h7.4c1,0,1.5,0.4,1.5,1.5s-0.4,1.5-1.5,1.5H17.9z M17.9,6.1h4.4
	c1,0.1,1.5,0.6,1.5,1.5S23.4,8.9,22.3,9H15V1.7c0-1,0.4-1.5,1.5-1.5s1.5,0.4,1.5,1.5V6.1z M6.1,6.1V1.7c0.1-1,0.6-1.5,1.5-1.5
	S8.9,0.6,9,1.7V9H1.7c-1,0-1.5-0.4-1.5-1.5s0.4-1.5,1.5-1.5H6.1z"/>
<line class="st2" x1="7.3" y1="7.1" x2="1.8" y2="1.7"/>
<line class="st2" x1="22.3" y1="22.2" x2="16.9" y2="16.7"/>
<line class="st2" x1="7.3" y1="16.9" x2="1.8" y2="22.3"/>
<line class="st2" x1="22.5" y1="1.7" x2="17" y2="7.1"/>
<circle class="st3" cx="12" cy="12.1" r="2.2"/>
</svg>
