<?xml version="1.0" encoding="utf-8"?>
<!-- Generator: Adobe Illustrator 26.1.0, SVG Export Plug-In . SVG Version: 6.00 Build 0)  -->
<svg version="1.1" id="Livello_1" xmlns="http://www.w3.org/2000/svg" xmlns:xlink="http://www.w3.org/1999/xlink" x="0px" y="0px"
	 viewBox="0 0 24 24" style="enable-background:new 0 0 24 24;" xml:space="preserve">
<style type="text/css">
	.st0{fill:none;}
	.st1{opacity:0.5;fill:#FFFFFF;enable-background:new    ;}
	.st2{fill-rule:evenodd;clip-rule:evenodd;fill:#FFFFFF;}
	.st3{fill:#FFFFFF;}
</style>
<desc>Created with Sketch.</desc>
<g id="Stockholm-icons-_x2F_-Files-_x2F_-Download">
	<rect id="bound" class="st0" width="24" height="24"/>
	<path id="Path-57" class="st1" d="M0.6,13.7c0-0.6,0.6-1.1,1.1-1.1s1.1,0.6,1.1,1.1c0,0.4,0,2.3,0,5.7c0,1.3,1,2.3,2.3,2.3h13.6
		c1.3,0,2.3-1,2.3-2.3v-5.7c0-0.6,0.5-1.1,1.1-1.1c0.6,0,1.1,0.5,1.1,1.1v5.7c0,2.5-2,4.5-4.5,4.5H5.2c-2.5,0-4.5-2-4.5-4.5
		C0.6,16,0.6,14.1,0.6,13.7z"/>
	<path id="Rectangle" class="st2" d="M12,16L12,16c-0.6,0-1.1-0.5-1.1-1.1V1.2c0-0.6,0.5-1.1,1.1-1.1l0,0c0.6,0,1.1,0.5,1.1,1.1
		v13.6C13.1,15.5,12.6,16,12,16z"/>
	<path id="Path-102" class="st3" d="M16.9,9.5C17.3,9,18,9,18.5,9.5s0.4,1.2,0,1.6l-5.7,5.7c-0.4,0.4-1.1,0.4-1.6,0l-5.7-5.1
		c-0.5-0.4-0.5-1.1-0.1-1.6C5.9,9.6,6.6,9.6,7.1,10l4.9,4.4L16.9,9.5z"/>
</g>
</svg>
