<?xml version="1.0" encoding="utf-8"?>
<!-- Generator: Adobe Illustrator 26.1.0, SVG Export Plug-In . SVG Version: 6.00 Build 0)  -->
<svg version="1.1" id="Livello_1" xmlns="http://www.w3.org/2000/svg" xmlns:xlink="http://www.w3.org/1999/xlink" x="0px" y="0px"
	 viewBox="0 0 24 24" style="enable-background:new 0 0 24 24;" xml:space="preserve">
<style type="text/css">
	.st0{fill:none;}
	.st1{opacity:0.7;fill-rule:evenodd;clip-rule:evenodd;fill:#FFFFFF;enable-background:new    ;}
	.st2{fill:#FFFFFF;}
</style>
<desc>Created with Sketch.</desc>
<g id="Stockholm-icons-_x2F_-General-_x2F_-Expand-arrows">
	<polygon id="Bound" class="st0" points="0,0 24,0 24,24 0,24 	"/>
	<path id="Combined-Shape" class="st1" d="M9.9,12L2.2,4.3c-0.6-0.6-0.6-1.5,0-2.1s1.5-0.6,2.1,0L12,9.9l9.3-9.3
		c0.6-0.6,1.5-0.6,2.1,0s0.6,1.5,0,2.1L14.1,12l9.3,9.3c0.6,0.6,0.6,1.5,0,2.1s-1.5,0.6-2.1,0L12,14.1l-7.7,7.7
		c-0.6,0.6-1.5,0.6-2.1,0s-0.6-1.5,0-2.1L9.9,12z"/>
	<path id="Combined-Shape_00000107552019059247286540000003640210791803692433_" class="st2" d="M3,21h4.5c1,0.2,1.5,0.7,1.5,1.5
		S8.5,23.8,7.5,24H0v-7.5c0-1,0.5-1.5,1.5-1.5S3,15.5,3,16.5V21z M21,21v-4.5c0.2-1,0.7-1.5,1.5-1.5s1.3,0.5,1.5,1.5V24h-7.5
		c-1,0-1.5-0.5-1.5-1.5s0.5-1.5,1.5-1.5H21z M21,3h-4.5c-1-0.2-1.5-0.7-1.5-1.5s0.5-1.3,1.5-1.5H24v7.5c0,1-0.5,1.5-1.5,1.5
		S21,8.5,21,7.5V3z M3,3v4.5C2.8,8.5,2.3,9,1.5,9S0.2,8.5,0,7.5V0h7.5C8.5,0,9,0.5,9,1.5S8.5,3,7.5,3H3z"/>
</g>
</svg>
