<svg id="Livello_1" data-name="Livello 1" xmlns="http://www.w3.org/2000/svg" viewBox="0 0 2062.11 540.64"><defs><style>.cls-1{fill:#941a28;}.cls-2{isolation:isolate;}.cls-3{fill:#fff;}</style></defs><circle class="cls-1" cx="270.32" cy="270.32" r="270.32"/><g class="cls-2"><path class="cls-3" d="M138,357.05V342.59c-7.24,5.26-21.7,17.75-45.37,17.75-48,0-74.95-42.08-74.95-84.16,0-47.34,25.64-86.79,73.64-86.79,23.67,0,37.47,9.87,45.36,15.13v-71h36.16V357.05ZM96.55,324.18c24.65,0,41.42-16.44,41.42-49.31s-17.43-49.31-41.42-49.31S53.81,240,53.81,274.87C53.81,307.74,71.89,324.18,96.55,324.18Z"/><path class="cls-3" d="M271.1,189.39c49.31,0,78.9,42.41,78.9,86.79,0,41.42-26.3,84.16-78.9,84.16s-78.9-42.74-78.9-84.16C192.2,231.8,221.79,189.39,271.1,189.39Zm-32,36.75a4.48,4.48,0,0,0-6.69,3.9v44.83l.77,44.74a4.48,4.48,0,0,0,6.7,3.81L318,278.77a4.49,4.49,0,0,0,0-7.79Z"/><g class="cls-2"><path class="cls-3" d="M446.31,189.4c57.2,0,70.35,50,75,72.32H483.13c-3.29-20.38-13.48-36.16-38.13-36.16-21.37,0-39.45,16.43-39.45,49.31,0,34.84,20.05,49.31,42.08,49.31,25,0,32.87-17.75,38.79-32.88h34.19c0,27.62-24.33,69-76.27,69-45.36,0-74.95-39.45-74.95-84.16C369.39,225.23,401.61,189.4,446.31,189.4Z"/></g><g class="cls-2"><path class="cls-3" d="M586.41,192.68V301.16c0,19.73,12.82,29.59,28.93,29.59,26.63,0,32.55-26.3,32.55-46V192.68h37.47V357.05H649.2V343.9c-5.91,4.6-20.71,16.44-47,16.44-28.6,0-53.25-18.41-53.25-54.57V192.68Z"/><path class="cls-3" d="M811.27,357.05V248.57c0-15.45-11.18-24.66-27.29-24.66-26.62,0-31.56,26.63-31.56,44.38v88.76H715V192.68h36.16v13.15c5.92-4.6,19.72-16.44,46-16.44,19.07,0,35.51,6.58,44.38,21.7,7.23-7.23,23.34-21.7,51.94-21.7s51.61,15.13,51.61,51.29V357.05H907.59V248.57c0-15.45-11.18-24.66-27.29-24.66-26.63,0-31.56,26.63-31.56,44.38v88.76Z"/><path class="cls-3" d="M1041.38,189.39c46,0,74.63,32.88,76.93,94h-116.7c3,28.6,20,40.77,42.08,40.77,25.31,0,33.2-15.78,36.48-23h36.17c-2,22.36-23,59.18-72.33,59.18-48,0-78.89-39.45-78.89-84.16C965.12,231.8,995.36,189.39,1041.38,189.39Zm-37.14,61.15h75.28c-2.3-20-15.78-31.56-36.82-31.56C1025.28,219,1010.15,228.51,1004.24,250.54Z"/><path class="cls-3" d="M1237.64,357.05V248.57c0-15.45-11.84-24.66-28.6-24.66-26.63,0-32.87,23.34-32.87,41.09v92.05h-37.48V192.68h36.16v13.15a78,78,0,0,1,47.34-16.44c28.6,0,52.92,15.13,52.92,51.29V357.05Z"/><path class="cls-3" d="M1346.12,133.51v59.17h23v36.16h-23v84.82c0,9.86,6.57,12.49,13.15,12.49,5.92,0,9.86-1.32,12.16-2.63v32.87c-3,1-10.85,3.95-26,3.95-25,0-35.5-15.13-35.5-30.9V228.84h-19.72V192.68H1310V133.51Z"/><path class="cls-3" d="M1543.36,322.86c4.27,0,8.55-.66,14.79-2v36.16c-11.5,1.64-17.42,2-23.34,2-20,0-29.58-4.27-37.14-17.09-5.92,4.6-22.36,18.41-51.29,18.41-36.81,0-64.43-25.64-64.43-54.57,0-37.48,31.56-52.6,76.93-52.6h31.55v-7.89c0-17.75-13.8-29.59-33.53-29.59-20.38,0-30.9,10.19-30.9,29.59h-40.1c0-35.5,31.56-55.89,72-55.89,37.15,0,68.71,16.77,68.71,52.27v67.06C1526.6,318.59,1533.17,322.86,1543.36,322.86ZM1451.64,334c27,0,38.79-23,38.79-36.16V281.44c-57.19-2.63-67.71,10.52-67.71,28.27C1422.72,322.86,1433.89,334,1451.64,334Z"/><path class="cls-3" d="M1663.68,357.05V248.57c0-15.45-11.83-24.66-28.6-24.66-26.63,0-32.87,23.34-32.87,41.09v92.05h-37.48V192.68h36.16v13.15a78,78,0,0,1,47.34-16.44c28.6,0,52.93,15.13,52.93,51.29V357.05Z"/><path class="cls-3" d="M1843.17,357.05V342.58c-7.23,5.26-21.7,17.76-45.37,17.76-48,0-75-42.08-75-84.16,0-47.34,25.64-86.79,73.64-86.79,23.67,0,37.47,9.87,45.36,15.13v-71H1878V357.05Zm-41.42-32.87c24.65,0,41.42-16.44,41.42-49.31s-17.42-49.32-41.42-49.32S1759,240,1759,274.87C1759,307.74,1777.09,324.18,1801.75,324.18Z"/><path class="cls-3" d="M1979.92,189.39c49.31,0,78.9,42.41,78.9,86.79,0,41.42-26.3,84.16-78.9,84.16S1901,317.6,1901,276.18C1901,231.8,1930.61,189.39,1979.92,189.39Zm0,36.16c-26,0-42.73,19.73-42.73,49.32,0,31.55,17.42,49.31,42.73,49.31s42.74-17.76,42.74-49.31C2022.66,245.28,2005.89,225.55,1979.92,225.55Z"/></g></g><path class="cls-3" d="M581,453H564.8l-5.27,13.51h-9.11l18.79-49.13h7.37l18.78,49.13h-9.1Zm-3-7.95-5.06-12.94-5,12.94Z"/><path class="cls-3" d="M616.1,437.46c-5.27,0-8.38,2.17-8.38,10.91v18.14h-8.24V430.38h7.95v4.05c2-2.46,4.48-4.77,9.1-4.77a14.24,14.24,0,0,1,5.78,1.15l-.43,7.95A12.44,12.44,0,0,0,616.1,437.46Z"/><path class="cls-3" d="M640.88,429.66c12.58,0,15.46,11,16.48,15.89H649c-.73-4.48-3-7.94-8.39-7.94-4.69,0-8.67,3.61-8.67,10.83,0,7.66,4.41,10.84,9.25,10.84,5.49,0,7.23-3.9,8.53-7.22h7.51c0,6.07-5.34,15.17-16.76,15.17-10,0-16.47-8.67-16.47-18.5C624,437.53,631.06,429.66,640.88,429.66Z"/><path class="cls-3" d="M685.75,466.51V442.66c0-4-2.74-6.21-6.28-6.21-5.86,0-7.23,6.21-7.23,10.55v19.51h-8V417.38H672v15.89c1.3-1.3,4.63-3.61,10.41-3.61,6.28,0,11.63,3.32,11.63,11.27v25.58Z"/><path class="cls-3" d="M710.61,416.65v8.67h-8.24v-8.67Zm0,13.73v36.13h-8.24V430.38Z"/><path class="cls-3" d="M723.47,430.38l8.59,23.48,8.6-23.48h8.53l-13.44,36.13h-7.37l-13.44-36.13Z"/><path class="cls-3" d="M761.76,416.65v8.67h-8.24v-8.67Zm0,13.73v36.13h-8.24V430.38Z"/><path class="cls-3" d="M786.33,429.66c10.83,0,17.34,9.32,17.34,19.07,0,9.11-5.79,18.5-17.34,18.5S769,457.84,769,448.73C769,439,775.49,429.66,786.33,429.66Zm0,7.95c-5.71,0-9.4,4.33-9.4,10.83,0,6.94,3.83,10.84,9.4,10.84s9.39-3.9,9.39-10.84C795.72,441.94,792,437.61,786.33,437.61Z"/><path class="cls-3" d="M851.78,466.51v-3.18c-1.59,1.15-4.77,3.9-10,3.9-10.55,0-16.47-9.25-16.47-18.5,0-10.4,5.63-19.07,16.18-19.07a16.51,16.51,0,0,1,10,3.32v-15.6h8v49.13Zm-9.1-7.23c5.42,0,9.1-3.61,9.1-10.84s-3.83-10.83-9.1-10.83-9.39,3.18-9.39,10.83C833.29,455.67,837.26,459.28,842.68,459.28Z"/><path class="cls-3" d="M883.07,429.66c10.11,0,16.4,7.22,16.9,20.66H874.33c.65,6.29,4.4,9,9.24,9,5.57,0,7.3-3.47,8-5.06h7.95c-.43,4.92-5.06,13-15.89,13-10.55,0-17.34-8.67-17.34-18.5S873,429.66,883.07,429.66ZM874.9,443.1h16.55c-.51-4.41-3.47-6.94-8.09-6.94C879.53,436.16,876.2,438.26,874.9,443.1Z"/><path class="cls-3" d="M914.86,417.38v49.13h-8.24V417.38Z"/><path class="cls-3" d="M964.42,466.51v-3.18c-1.59,1.15-4.77,3.9-10,3.9-10.55,0-16.47-9.25-16.47-18.5,0-10.4,5.63-19.07,16.18-19.07a16.54,16.54,0,0,1,10,3.32v-15.6h8v49.13Zm-9.1-7.23c5.42,0,9.1-3.61,9.1-10.84s-3.83-10.83-9.1-10.83-9.39,3.18-9.39,10.83C945.93,455.67,949.9,459.28,955.32,459.28Z"/><path class="cls-3" d="M996.65,429.66c10.83,0,17.34,9.32,17.34,19.07,0,9.11-5.78,18.5-17.34,18.5s-17.35-9.39-17.35-18.5C979.3,439,985.81,429.66,996.65,429.66Zm0,7.95c-5.71,0-9.4,4.33-9.4,10.83,0,6.94,3.83,10.84,9.4,10.84s9.39-3.9,9.39-10.84C1006,441.94,1002.35,437.61,996.65,437.61Z"/><path class="cls-3" d="M1036.67,429.66c12.57,0,15.46,11,16.48,15.89h-8.39c-.72-4.48-3-7.94-8.38-7.94-4.69,0-8.67,3.61-8.67,10.83,0,7.66,4.41,10.84,9.25,10.84,5.49,0,7.23-3.9,8.53-7.22H1053c0,6.07-5.35,15.17-16.76,15.17-10,0-16.47-8.67-16.47-18.5C1019.77,437.53,1026.85,429.66,1036.67,429.66Z"/><path class="cls-3" d="M1068,430.38v23.84c0,4.34,2.82,6.51,6.36,6.51,5.85,0,7.15-5.78,7.15-10.12V430.38h8.24v36.13h-8v-2.89a15.77,15.77,0,0,1-10.33,3.61c-6.29,0-11.71-4.05-11.71-12V430.38Z"/><path class="cls-3" d="M1119.62,466.51V442.66c0-3.39-2.46-5.42-6-5.42-5.85,0-6.94,5.86-6.94,9.76v19.51h-8.23V430.38h7.94v2.89a15.07,15.07,0,0,1,10.12-3.61c4.19,0,7.8,1.44,9.75,4.77a15.46,15.46,0,0,1,11.42-4.77c6.28,0,11.34,3.32,11.34,11.27v25.58h-8.23V442.66c0-3.39-2.46-5.42-6-5.42-5.85,0-6.94,5.86-6.94,9.76v19.51Z"/><path class="cls-3" d="M1172.36,429.66c10.12,0,16.4,7.22,16.91,20.66h-25.65c.65,6.29,4.41,9,9.25,9,5.56,0,7.29-3.47,8-5.06h7.94c-.43,4.92-5,13-15.89,13-10.55,0-17.34-8.67-17.34-18.5S1162.25,429.66,1172.36,429.66Zm-8.16,13.44h16.54c-.5-4.41-3.47-6.94-8.09-6.94C1168.82,436.16,1165.5,438.26,1164.2,443.1Z"/><path class="cls-3" d="M1217.66,466.51V442.66c0-3.39-2.6-5.42-6.28-5.42-5.86,0-7.23,5.13-7.23,9v20.23h-8.24V430.38h7.95v2.89a17.16,17.16,0,0,1,10.41-3.61c6.28,0,11.63,3.32,11.63,11.27v25.58Z"/><path class="cls-3" d="M1243.67,417.38v13h5.06v7.95h-5.06V457c0,2.17,1.45,2.74,2.89,2.74a5.39,5.39,0,0,0,2.67-.57v7.22a16,16,0,0,1-5.7.87c-5.49,0-7.81-3.32-7.81-6.79V438.33h-4.33v-7.95h4.33v-13Z"/><path class="cls-3" d="M1289.19,459a15.37,15.37,0,0,0,3.25-.43v7.95a33.4,33.4,0,0,1-5.13.43c-4.41,0-6.5-.94-8.16-3.76a17.19,17.19,0,0,1-11.27,4.05c-8.1,0-14.17-5.64-14.17-12,0-8.23,6.94-11.56,16.91-11.56h6.94v-1.73c0-3.9-3-6.5-7.37-6.5-4.48,0-6.79,2.24-6.79,6.5h-8.82c0-7.8,6.94-12.28,15.82-12.28,8.17,0,15.1,3.68,15.1,11.49v14.73C1285.5,458.05,1287,459,1289.19,459ZM1269,461.45a8.39,8.39,0,0,0,8.53-7.95v-3.61c-12.57-.58-14.89,2.31-14.89,6.21C1262.67,459,1265.13,461.45,1269,461.45Z"/><path class="cls-3" d="M1312.67,437.46c-5.27,0-8.38,2.17-8.38,10.91v18.14h-8.24V430.38h8v4.05c2-2.46,4.48-4.77,9.1-4.77a14.24,14.24,0,0,1,5.78,1.15l-.43,7.95A12.44,12.44,0,0,0,1312.67,437.46Z"/><path class="cls-3" d="M1331.67,416.65v8.67h-8.23v-8.67Zm0,13.73v36.13h-8.23V430.38Z"/><path class="cls-3" d="M1356.24,429.66c10.84,0,17.34,9.32,17.34,19.07,0,9.11-5.78,18.5-17.34,18.5s-17.34-9.39-17.34-18.5C1338.9,439,1345.4,429.66,1356.24,429.66Zm0,7.95c-5.71,0-9.39,4.33-9.39,10.83,0,6.94,3.83,10.84,9.39,10.84s9.39-3.9,9.39-10.84C1365.63,441.94,1362,437.61,1356.24,437.61Z"/><path class="cls-3" d="M1404.94,416.65v8.67h-8.24v-8.67Zm0,13.73v36.13h-8.24V430.38Z"/><path class="cls-3" d="M1423,417.38v13h5.06v7.95H1423V457c0,2.17,1.44,2.74,2.89,2.74a5.39,5.39,0,0,0,2.67-.57v7.22a16,16,0,0,1-5.71.87c-5.49,0-7.8-3.32-7.8-6.79V438.33h-4.33v-7.95h4.33v-13Z"/><path class="cls-3" d="M1468.52,459a15.45,15.45,0,0,0,3.25-.43v7.95a33.4,33.4,0,0,1-5.13.43c-4.41,0-6.5-.94-8.17-3.76a17.16,17.16,0,0,1-11.27,4.05c-8.09,0-14.16-5.64-14.16-12,0-8.23,6.94-11.56,16.91-11.56h6.93v-1.73c0-3.9-3-6.5-7.37-6.5s-6.79,2.24-6.79,6.5h-8.81c0-7.8,6.93-12.28,15.82-12.28,8.17,0,15.1,3.68,15.1,11.49v14.73C1464.83,458.05,1466.28,459,1468.52,459Zm-20.16,2.46a8.39,8.39,0,0,0,8.52-7.95v-3.61c-12.57-.58-14.88,2.31-14.88,6.21C1442,459,1444.46,461.45,1448.36,461.45Z"/><path class="cls-3" d="M1483.62,417.38v49.13h-8.24V417.38Z"/><path class="cls-3" d="M1500.52,416.65v8.67h-8.23v-8.67Zm0,13.73v36.13h-8.23V430.38Z"/><path class="cls-3" d="M1542.65,459a15.53,15.53,0,0,0,3.25-.43v7.95a33.4,33.4,0,0,1-5.13.43c-4.41,0-6.51-.94-8.17-3.76a17.16,17.16,0,0,1-11.27,4.05c-8.09,0-14.16-5.64-14.16-12,0-8.23,6.94-11.56,16.91-11.56H1531v-1.73c0-3.9-3-6.5-7.37-6.5s-6.79,2.24-6.79,6.5H1508c0-7.8,6.93-12.28,15.82-12.28,8.16,0,15.1,3.68,15.1,11.49v14.73C1539,458.05,1540.41,459,1542.65,459Zm-20.16,2.46a8.39,8.39,0,0,0,8.52-7.95v-3.61c-12.57-.58-14.88,2.31-14.88,6.21C1516.13,459,1518.59,461.45,1522.49,461.45Z"/><path class="cls-3" d="M1571.26,466.51V442.66c0-3.39-2.6-5.42-6.29-5.42-5.85,0-7.22,5.13-7.22,9v20.23h-8.24V430.38h8v2.89a17.16,17.16,0,0,1,10.4-3.61c6.29,0,11.63,3.32,11.63,11.27v25.58Z"/><path class="cls-3" d="M1603.77,429.66c10.84,0,17.34,9.32,17.34,19.07,0,9.11-5.78,18.5-17.34,18.5s-17.34-9.39-17.34-18.5C1586.43,439,1592.93,429.66,1603.77,429.66Zm0,7.95c-5.71,0-9.39,4.33-9.39,10.83,0,6.94,3.83,10.84,9.39,10.84s9.39-3.9,9.39-10.84C1613.16,441.94,1609.48,437.61,1603.77,437.61Z"/></svg>